<svg xmlns="http://www.w3.org/2000/svg" viewBox="0 0 32 32" id="audience"><path d="M6.23 20.93A5.9 5.9 0 0 1 2.54 19 6 6 0 0 0 1 23v3a1 1 0 0 0 1 1H6.18A3 3 0 0 1 6 26V23A9.45 9.45 0 0 1 6.23 20.93zM9.78 15.2A6.91 6.91 0 0 1 9 12V10.56A3.91 3.91 0 0 0 7 10a4 4 0 0 0-4 4v1a4 4 0 0 0 3.85 4A10 10 0 0 1 9.78 15.2zM29.46 19a5.9 5.9 0 0 1-3.69 1.93A9.45 9.45 0 0 1 26 23v3a3 3 0 0 1-.18 1H30a1 1 0 0 0 1-1V23A6 6 0 0 0 29.46 19zM29 15V14a4 4 0 0 0-4-4 3.91 3.91 0 0 0-2 .56V12a6.91 6.91 0 0 1-.78 3.2A10 10 0 0 1 25.15 19 4 4 0 0 0 29 15zM21.07 16.82a7 7 0 0 1-10.14 0A8 8 0 0 0 8 23v3a1 1 0 0 0 1 1H23a1 1 0 0 0 1-1V23A8 8 0 0 0 21.07 16.82z"></path><path d="M16,17a5,5,0,0,0,5-5V10a5,5,0,0,0-10,0v2A5,5,0,0,0,16,17Z"></path></svg>